<?xml version="1.0" standalone="no"?>
<!DOCTYPE svg PUBLIC "-//W3C//DTD SVG 20010904//EN"
 "http://www.w3.org/TR/2001/REC-SVG-20010904/DTD/svg10.dtd">
<svg version="1.0" xmlns="http://www.w3.org/2000/svg"
 width="260.000000pt" height="260.000000pt" viewBox="0 0 260.000000 260.000000"
 preserveAspectRatio="xMidYMid meet">
<metadata>
Created by potrace 1.14, written by Peter Selinger 2001-2017
</metadata>
<g transform="translate(0.000000,260.000000) scale(0.100000,-0.100000)"
fill="#000000" stroke="none">
<path d="M1208 2260 c-80 -24 -127 -77 -151 -171 l-14 -54 -364 -5 c-200 -3
-370 -9 -376 -13 -10 -6 -13 -145 -13 -636 0 -551 2 -630 15 -641 14 -11 12
-15 -13 -30 -20 -13 -59 -71 -124 -187 -53 -92 -103 -182 -112 -200 -20 -40
-21 -92 0 -121 l15 -22 1228 0 c941 0 1230 3 1239 12 7 7 12 36 12 65 0 48 -9
68 -105 240 -98 175 -126 215 -158 226 -8 2 -7 9 6 21 16 16 17 61 17 636 0
549 -2 620 -16 634 -13 14 -57 16 -329 16 l-313 0 -7 49 c-13 92 -68 147 -180
176 -63 16 -211 19 -257 5z m223 -23 c15 -3 36 -10 48 -16 12 -7 25 -9 30 -7
5 3 12 -1 15 -10 3 -9 12 -14 18 -12 15 5 30 -8 48 -41 12 -24 12 -24 -21 -17
-19 4 -61 12 -94 16 -96 14 -130 22 -136 32 -3 5 -47 10 -96 11 -97 1 -102 8
-28 39 38 16 140 18 216 5z m-101 -107 c47 -6 122 -18 168 -27 71 -14 85 -20
93 -40 12 -33 13 -274 1 -356 -6 -38 -18 -79 -26 -92 -41 -63 -156 -117 -251
-118 -107 -1 -236 78 -277 170 -17 39 -17 47 -2 155 8 62 24 133 35 157 10 24
19 52 19 63 0 10 9 37 20 58 20 40 21 40 78 40 32 0 96 -5 142 -10z m-304
-212 c-3 -13 -6 -38 -6 -55 0 -18 -4 -33 -10 -33 -11 0 -14 93 -3 103 14 15
25 6 19 -15z m-43 -70 c4 -28 11 -56 17 -62 5 -5 10 -33 10 -62 0 -38 6 -61
26 -90 28 -43 75 -87 117 -110 15 -8 27 -18 27 -23 0 -4 -51 -18 -112 -30 -62
-13 -123 -29 -135 -36 -11 -8 -53 -71 -93 -140 -69 -121 -71 -127 -55 -145 14
-15 16 -29 11 -62 -4 -23 -12 -48 -18 -56 -12 -14 -13 -115 -2 -165 l6 -27
-211 0 -211 0 0 530 0 530 309 0 308 0 6 -52z m1256 -440 c-1 -271 -5 -510 -7
-530 l-5 -38 -360 0 -360 0 7 98 c11 173 27 282 40 274 6 -4 47 -31 90 -60 61
-40 82 -50 92 -41 8 7 28 9 49 5 52 -10 70 -1 106 55 25 40 33 65 39 128 10
96 27 161 42 161 7 0 27 15 46 32 18 18 50 38 70 43 27 8 37 16 37 30 0 16 -6
19 -30 17 l-30 -2 28 21 c53 40 27 73 -31 37 l-37 -22 18 24 c34 49 41 70 28
83 -10 9 -21 3 -51 -32 l-39 -45 11 42 c21 84 -21 103 -46 20 -25 -84 -30 -87
-66 -48 -24 25 -34 30 -43 21 -9 -9 -9 -16 1 -31 6 -11 12 -33 12 -50 0 -16 7
-47 16 -69 15 -39 15 -39 -27 -122 -23 -46 -42 -85 -44 -87 -1 -1 -51 21 -111
49 -108 50 -243 99 -276 99 -30 0 -20 15 20 29 86 30 172 105 172 149 0 8 16
46 35 85 36 73 45 133 23 155 -9 9 54 12 286 12 l298 0 -3 -492z m-603 371
c-13 -31 -14 -32 -15 -9 -1 14 5 43 11 65 l12 40 4 -31 c2 -17 -4 -47 -12 -65z
m343 -76 c-5 -21 -8 -49 -8 -63 0 -23 3 -21 44 25 24 27 46 47 49 44 3 -3 -10
-27 -30 -54 -19 -28 -30 -51 -25 -53 6 -2 29 7 51 19 56 32 61 17 6 -21 -25
-17 -46 -34 -46 -37 0 -3 23 -3 50 1 59 8 64 2 13 -14 -21 -7 -54 -27 -73 -45
-19 -18 -44 -35 -55 -37 -11 -2 -20 -8 -21 -13 0 -14 -25 -185 -29 -210 -3
-11 -18 -42 -36 -68 -25 -38 -36 -47 -59 -47 -36 0 -44 11 -26 36 9 11 12 31
9 52 -5 27 5 58 47 149 52 112 53 116 42 159 -7 24 -12 57 -12 72 0 15 -7 38
-16 50 -8 12 -11 22 -5 22 16 0 73 -79 81 -113 6 -25 8 -27 9 -9 1 13 -4 32
-9 42 -8 14 -5 30 9 62 11 24 23 56 26 71 3 15 9 25 14 22 5 -3 5 -21 0 -42z
m-668 -223 c32 0 59 -4 59 -8 0 -5 11 -14 25 -20 34 -16 23 -39 -26 -53 -54
-17 -140 3 -182 42 -25 22 -28 28 -14 29 10 0 20 6 23 14 4 11 12 13 31 5 13
-5 51 -9 84 -9z m-64 -89 c84 -24 168 -7 179 34 l6 22 71 -22 c40 -13 121 -46
180 -74 102 -48 107 -52 96 -72 -6 -13 -9 -38 -5 -60 5 -33 2 -43 -22 -70
l-28 -31 -87 59 c-85 56 -87 59 -87 98 0 128 -37 -106 -56 -363 l-7 -82 -246
2 -246 3 -8 124 -7 124 35 101 c21 57 30 95 22 86 -8 -8 -26 -46 -40 -85 -43
-119 -47 -125 -76 -118 -39 9 -52 18 -95 61 l-38 40 67 119 c37 65 74 124 83
131 21 16 64 15 88 -3 28 -21 40 -18 19 5 -10 11 -16 22 -14 24 2 2 27 8 54
13 48 9 51 8 87 -23 20 -18 54 -37 75 -43z m-358 -355 c15 -39 14 -101 -3
-156 -12 -41 -16 -45 -49 -48 -34 -3 -36 -1 -41 30 -14 88 -13 116 7 180 l21
66 27 -21 c15 -12 32 -35 38 -51z m79 -93 l3 -103 -37 0 c-36 0 -36 0 -28 33
4 17 9 61 10 97 1 36 3 69 3 73 1 5 11 7 24 5 21 -3 22 -8 25 -105z m-190
-205 c-3 -10 -44 -14 -146 -16 -122 -2 -142 0 -142 13 0 13 22 15 146 15 112
0 145 -3 142 -12z m1332 -3 c0 -13 -23 -15 -145 -15 -122 0 -145 2 -145 15 0
13 23 15 145 15 122 0 145 -2 145 -15z m-1637 -12 c3 -5 405 -7 894 -7 692 1
895 -1 919 -11 25 -10 49 -46 140 -206 60 -107 109 -205 109 -219 l0 -25
-1237 -3 c-1192 -2 -1237 -1 -1242 16 -6 19 186 374 227 419 11 12 38 27 61
32 52 11 123 13 129 4z"/>
<path d="M1114 1958 c-19 -21 -19 -21 1 -13 25 11 80 12 120 3 34 -7 61 4 51
21 -4 6 -37 11 -80 11 -62 0 -76 -3 -92 -22z"/>
<path d="M1380 1950 c0 -15 45 -30 86 -30 19 0 48 -7 64 -15 33 -17 40 -7 12
18 -30 28 -162 50 -162 27z"/>
<path d="M1133 1915 c-27 -11 -33 -20 -33 -44 0 -36 7 -41 89 -62 61 -15 65
-15 83 3 60 60 -51 143 -139 103z m57 -20 c0 -24 -4 -30 -18 -28 -9 1 -12 -6
-9 -19 5 -16 1 -19 -21 -16 -36 4 -42 40 -10 62 28 20 58 21 58 1z m76 -20
c31 -47 -2 -79 -60 -56 -19 7 -19 8 2 13 27 7 30 43 5 57 -15 9 -14 10 9 11
18 0 33 -8 44 -25z"/>
<path d="M1397 1888 c-28 -10 -41 -39 -35 -79 3 -23 8 -24 81 -27 88 -3 110 7
105 46 -6 48 -91 82 -151 60z m106 -24 c42 -13 44 -74 2 -74 -19 0 -23 5 -21
32 1 23 -4 33 -16 36 -12 2 -18 -3 -18 -13 0 -12 -5 -15 -21 -10 -18 6 -19 5
-10 -13 16 -30 14 -32 -19 -32 -27 0 -30 3 -30 29 0 54 47 70 133 45z"/>
<path d="M1270 1720 c0 -5 7 -10 16 -10 8 0 12 5 9 10 -3 6 -10 10 -16 10 -5
0 -9 -4 -9 -10z"/>
<path d="M1325 1710 c4 -6 11 -8 16 -5 14 9 11 15 -7 15 -8 0 -12 -5 -9 -10z"/>
<path d="M1130 1673 c0 -13 2 -15 8 -5 7 9 16 6 37 -15 24 -24 26 -25 16 -5
-6 12 -16 22 -22 22 -6 0 -7 5 -4 10 3 6 -3 10 -14 10 -13 0 -21 -6 -21 -17z"/>
<path d="M1218 1653 c12 -2 30 -2 40 0 9 3 -1 5 -23 4 -22 0 -30 -2 -17 -4z"/>
<path d="M1444 1651 c7 -11 1 -13 -49 -13 -23 0 -25 -1 -7 -5 12 -2 19 -9 16
-15 -3 -5 7 -3 24 6 16 8 33 12 37 8 4 -4 6 -1 3 7 -2 8 -10 17 -18 19 -7 3
-10 0 -6 -7z"/>
<path d="M1303 1643 c9 -2 25 -2 35 0 9 3 1 5 -18 5 -19 0 -27 -2 -17 -5z"/>
<path d="M1268 1603 c7 -3 16 -2 19 1 4 3 -2 6 -13 5 -11 0 -14 -3 -6 -6z"/>
<path d="M1368 1603 c7 -3 16 -2 19 1 4 3 -2 6 -13 5 -11 0 -14 -3 -6 -6z"/>
<path d="M365 623 c-34 -77 -41 -96 -25 -70 10 15 27 17 153 15 l142 -2 -138
-3 c-110 -3 -139 -7 -143 -18 -4 -8 -12 -15 -18 -15 -7 0 -20 -16 -29 -35
l-17 -35 1008 1 c611 0 998 4 985 9 -13 5 -23 14 -23 19 0 6 -24 12 -52 14
l-53 3 57 2 c45 2 59 -2 68 -15 19 -29 6 5 -40 105 l-43 92 -901 0 -902 0 -29
-67z m120 52 c-23 -8 -85 -10 -85 -3 0 4 21 8 48 7 26 0 43 -2 37 -4z m115 -1
c-36 -8 -100 -9 -100 -2 0 5 26 7 58 7 31 -1 50 -3 42 -5z m120 0 c-35 -7 -98
-9 -94 -2 3 5 29 7 57 7 29 -1 45 -3 37 -5z m108 -1 c-16 -2 -40 -2 -55 0 -16
2 -3 4 27 4 30 0 43 -2 28 -4z m120 0 c-16 -2 -40 -2 -55 0 -16 2 -3 4 27 4
30 0 43 -2 28 -4z m130 0 c-15 -2 -42 -2 -60 0 -18 2 -6 4 27 4 33 0 48 -2 33
-4z m120 0 c-16 -2 -40 -2 -55 0 -16 2 -3 4 27 4 30 0 43 -2 28 -4z m130 0
c-15 -2 -42 -2 -60 0 -18 2 -6 4 27 4 33 0 48 -2 33 -4z m120 0 c-16 -2 -40
-2 -55 0 -16 2 -3 4 27 4 30 0 43 -2 28 -4z m85 0 c-7 -2 -21 -2 -30 0 -10 3
-4 5 12 5 17 0 24 -2 18 -5z m300 0 c-7 -2 -19 -2 -25 0 -7 3 -2 5 12 5 14 0
19 -2 13 -5z m115 0 c-16 -2 -40 -2 -55 0 -16 2 -3 4 27 4 30 0 43 -2 28 -4z
m120 0 c-15 -2 -42 -2 -60 0 -18 2 -6 4 27 4 33 0 48 -2 33 -4z m126 -1 c2 -4
-12 -6 -32 -4 -56 5 -62 10 -15 11 23 1 44 -3 47 -7z m-1724 -29 c-43 -3 -78
-9 -82 -16 -5 -8 -8 -8 -8 -1 0 21 14 24 89 22 l76 -2 -75 -3z m180 1 c-36 -8
-100 -9 -100 -2 0 5 26 7 58 7 31 -1 50 -3 42 -5z m130 0 c-34 -7 -108 -8
-103 -1 2 4 30 6 61 6 31 -1 50 -3 42 -5z m108 -1 c-15 -2 -42 -2 -60 0 -18 2
-6 4 27 4 33 0 48 -2 33 -4z m130 0 c-15 -2 -42 -2 -60 0 -18 2 -6 4 27 4 33
0 48 -2 33 -4z m120 0 c-15 -2 -42 -2 -60 0 -18 2 -6 4 27 4 33 0 48 -2 33 -4z
m142 1 c-34 -7 -108 -8 -103 -1 2 4 30 6 61 6 31 -1 50 -3 42 -5z m118 -1
c-15 -2 -42 -2 -60 0 -18 2 -6 4 27 4 33 0 48 -2 33 -4z m120 0 c-15 -2 -42
-2 -60 0 -18 2 -6 4 27 4 33 0 48 -2 33 -4z m130 0 c-15 -2 -42 -2 -60 0 -18
2 -6 4 27 4 33 0 48 -2 33 -4z m120 0 c-15 -2 -42 -2 -60 0 -18 2 -6 4 27 4
33 0 48 -2 33 -4z m152 -1 c0 -4 -19 -6 -42 -4 -71 5 -77 10 -15 11 31 0 57
-2 57 -7z m98 1 c-15 -2 -42 -2 -60 0 -18 2 -6 4 27 4 33 0 48 -2 33 -4z m192
0 c0 -5 -26 -7 -57 -5 -101 5 -111 9 -25 11 45 0 82 -2 82 -6z m-1837 -48 c-3
-9 -8 -14 -10 -11 -3 3 -2 9 2 15 9 16 15 13 8 -4z m580 8 c-7 -2 -21 -2 -30
0 -10 3 -4 5 12 5 17 0 24 -2 18 -5z m115 0 c-15 -2 -42 -2 -60 0 -18 2 -6 4
27 4 33 0 48 -2 33 -4z m1162 -8 c0 -8 -2 -15 -4 -15 -2 0 -6 7 -10 15 -3 8
-1 15 4 15 6 0 10 -7 10 -15z m-1480 -31 c-34 -7 -110 -9 -110 -2 0 5 28 7 63
7 34 -1 55 -3 47 -5z m130 0 c-34 -7 -108 -8 -103 -1 2 4 30 6 61 6 31 -1 50
-3 42 -5z m123 -1 c-18 -2 -48 -2 -65 0 -18 2 -4 4 32 4 36 0 50 -2 33 -4z
m147 1 c-34 -7 -110 -9 -110 -2 0 5 28 7 63 7 34 -1 55 -3 47 -5z m118 -1
c-15 -2 -42 -2 -60 0 -18 2 -6 4 27 4 33 0 48 -2 33 -4z m130 0 c-15 -2 -42
-2 -60 0 -18 2 -6 4 27 4 33 0 48 -2 33 -4z m125 0 c-18 -2 -48 -2 -65 0 -18
2 -4 4 32 4 36 0 50 -2 33 -4z m164 -13 c3 -10 2 -11 -4 -3 -5 6 -33 14 -63
16 l-55 4 59 -1 c44 -1 60 -5 63 -16z m106 13 c-18 -2 -48 -2 -65 0 -18 2 -4
4 32 4 36 0 50 -2 33 -4z m130 0 c-18 -2 -48 -2 -65 0 -18 2 -4 4 32 4 36 0
50 -2 33 -4z m125 0 c-16 -2 -40 -2 -55 0 -16 2 -3 4 27 4 30 0 43 -2 28 -4z
m202 -14 c7 -11 9 -24 5 -27 -3 -3 -8 4 -11 16 -6 19 -14 22 -83 25 l-76 3 77
2 c69 2 78 0 88 -19z m-1854 -46 c-41 -3 -64 -9 -72 -21 -14 -18 -18 -13 -8
12 5 13 20 16 73 14 l66 -2 -59 -3z m77 -11 c-21 -22 -26 -21 -17 2 3 9 12 16
20 16 11 0 10 -4 -3 -18z m667 11 c-188 -3 -256 -7 -262 -16 -5 -8 -8 -7 -8 6
0 16 18 17 263 15 l262 -3 -255 -2z m750 -3 c0 -5 -7 -7 -15 -4 -8 4 -15 8
-15 10 0 2 7 4 15 4 8 0 15 -4 15 -10z m58 3 c-10 -2 -26 -2 -35 0 -10 3 -2 5
17 5 19 0 27 -2 18 -5z m67 -4 c11 -16 1 -19 -13 -3 -7 8 -8 14 -3 14 5 0 13
-5 16 -11z m133 -14 c4 -18 3 -19 -10 -3 -8 11 -31 19 -63 21 -44 3 -42 4 10
3 52 -1 60 -4 63 -21z"/>
<path d="M930 385 c-6 -30 -10 -63 -8 -73 3 -9 8 7 12 36 6 38 14 56 29 65 16
8 119 14 357 17 l335 6 -357 2 -357 2 -11 -55z"/>
</g>
</svg>
